<?xml version="1.0" standalone="no"?><!DOCTYPE svg PUBLIC "-//W3C//DTD SVG 1.1//EN" "http://www.w3.org/Graphics/SVG/1.1/DTD/svg11.dtd"><svg t="1720775384821" class="icon" viewBox="0 0 1024 1024" version="1.1" xmlns="http://www.w3.org/2000/svg" p-id="8414" xmlns:xlink="http://www.w3.org/1999/xlink" width="200" height="200"><path d="M942.545455 676.584727a34.909091 34.909091 0 0 1 34.90909 34.909091v139.636364c0 70.562909-57.437091 128-128 128h-674.90909a128.139636 128.139636 0 0 1-128-128v-139.636364a34.909091 34.909091 0 1 1 69.818181 0v139.636364c0 32.046545 26.088727 58.181818 58.181819 58.181818h674.90909c32.093091 0 58.181818-26.135273 58.181819-58.181818v-139.636364a34.909091 34.909091 0 0 1 34.909091-34.909091z m-455.214546 129.396364l-164.584727-164.561455a34.909091 34.909091 0 1 1 49.361454-49.361454l104.983273 104.96V81.454545a34.909091 34.909091 0 1 1 69.818182 0v615.563637l104.96-104.96a34.909091 34.909091 0 1 1 49.361454 49.361454l-164.538181 164.561455a34.792727 34.792727 0 0 1-24.669091 10.216727c-8.96 0-17.873455-3.397818-24.715637-10.216727z" fill="#797979" p-id="8415"></path></svg>