<?xml version="1.0" standalone="no"?><!DOCTYPE svg PUBLIC "-//W3C//DTD SVG 1.1//EN" "http://www.w3.org/Graphics/SVG/1.1/DTD/svg11.dtd">
<svg t="1720611187325"
     class="icon"
     viewBox="0 0 1024 1024"
     version="1.1"
     xmlns="http://www.w3.org/2000/svg"
     p-id="7405"
     xmlns:xlink="http://www.w3.org/1999/xlink"
     width="200"
     height="200">
    <path
        d="M0 107.27619l138.971429 138.158731 60.139682-14.628572 360.838095 360.025397c8.939683 8.939683 23.568254 8.939683 33.320635 0 8.939683-8.939683 8.939683-23.568254 0-33.320635L232.431746 198.298413l14.628571-60.139683L108.088889 0l-21.130159 86.95873L0 107.27619z"
        fill="#313C42"
        p-id="7406"></path>
    <path
        d="M590.831746 160.101587c-95.085714 0-183.669841 30.88254-255.187302 82.895238l76.393651 76.393651c51.2-33.320635 112.965079-52.825397 178.793651-52.825397 180.419048 0 327.51746 146.285714 327.51746 325.892064S771.250794 918.349206 590.831746 918.349206c-180.419048 0-327.51746-146.285714-327.51746-325.892063 0-67.453968 20.31746-130.031746 56.07619-182.044445l-76.393651-76.39365C189.35873 406.349206 156.850794 495.746032 156.850794 592.457143c0 238.120635 194.234921 431.542857 433.168254 431.542857S1024 830.577778 1024 592.457143s-194.234921-432.355556-433.168254-432.355556z"
        fill="#313C42"
        p-id="7407"></path>
    <path
        d="M590.831746 332.393651c-47.949206 0-92.647619 13.003175-130.844444 34.946032l62.577777 62.577777c21.130159-8.939683 43.885714-13.815873 68.266667-13.815873 97.52381 0 176.355556 78.831746 176.355556 175.542857 0 96.711111-78.831746 175.542857-176.355556 175.542858S414.47619 688.355556 414.47619 591.644444c0-25.193651 5.688889-49.574603 15.44127-71.51746l-62.577777-62.577778c-23.568254 39.009524-37.384127 85.333333-37.384127 134.095238 0 143.034921 117.028571 260.063492 260.87619 260.063493 143.847619 0 260.87619-116.215873 260.876191-260.063493S734.679365 332.393651 590.831746 332.393651z"
        fill="#313C42"
        p-id="7408"></path>
    <path
        d="M590.831746 482.742857c-4.87619 0-9.752381 0.812698-14.628571 0.812699l45.511111 45.511111c25.193651 25.193651 25.193651 65.828571 0 91.022222-12.190476 12.190476-28.444444 18.692063-46.32381 18.692063-17.066667 0-33.320635-6.501587-45.511111-18.692063l-47.949206-47.949206c-0.812698 6.501587-1.625397 13.003175-1.625397 19.504761 0 60.139683 49.574603 109.714286 110.526984 109.714286s110.526984-49.574603 110.526984-109.714286c-0.812698-60.139683-50.387302-108.901587-110.526984-108.901587z"
        fill="#313C42"
        p-id="7409"></path>
</svg>