<?xml version="1.0" standalone="no"?><!DOCTYPE svg PUBLIC "-//W3C//DTD SVG 1.1//EN" "http://www.w3.org/Graphics/SVG/1.1/DTD/svg11.dtd"><svg t="1720620132262" class="icon" viewBox="0 0 1024 1024" version="1.1" xmlns="http://www.w3.org/2000/svg" p-id="48008" xmlns:xlink="http://www.w3.org/1999/xlink" width="200" height="200"><path d="M338.5 62.5H180.9c-71.5 0-129.4 57.9-129.4 129.4v157.6c0 71.5 57.9 129.4 129.4 129.4h157.6c71.5 0 129.4-57.9 129.4-129.4V191.9c0-71.5-57.9-129.4-129.4-129.4z" fill="#47c2fe" p-id="48009"></path><path d="M338.5 542.4H180.9c-71.5 0-129.4 57.9-129.4 129.4v157.6c0 71.5 57.9 129.4 129.4 129.4h157.6c71.5 0 129.4-57.9 129.4-129.4V671.8c0-71.5-57.9-129.4-129.4-129.4zM829.9 62.5H672.4c-71.5 0-129.4 57.9-129.4 129.4v157.6c0 71.5 57.9 129.4 129.4 129.4H830c71.5 0 129.4-57.9 129.4-129.4V191.9c-0.1-71.5-58-129.4-129.5-129.4z" fill="#47c2fe" p-id="48010"></path><path d="M829.9 542.4H672.4c-71.5 0-129.4 57.9-129.4 129.4v157.6c0 71.5 57.9 129.4 129.4 129.4H830c71.5 0 129.4-57.9 129.4-129.4V671.8c-0.1-71.5-58-129.4-129.5-129.4z" fill="#47c2fe" p-id="48011"></path></svg>