<?xml version="1.0" standalone="no"?><!DOCTYPE svg PUBLIC "-//W3C//DTD SVG 1.1//EN" "http://www.w3.org/Graphics/SVG/1.1/DTD/svg11.dtd"><svg t="1720613419940" class="icon" viewBox="0 0 1024 1024" version="1.1" xmlns="http://www.w3.org/2000/svg" p-id="22717" xmlns:xlink="http://www.w3.org/1999/xlink" width="200" height="200"><path d="M768 0h-625.777778A85.333333 85.333333 0 0 0 56.888889 85.333333v739.555556A85.333333 85.333333 0 0 0 142.222222 910.222222H170.666667v28.444445A85.333333 85.333333 0 0 0 256 1024h625.777778a85.333333 85.333333 0 0 0 85.333333-85.333333v-739.555556A85.333333 85.333333 0 0 0 881.777778 113.777778H853.333333v-28.444445A85.333333 85.333333 0 0 0 768 0z m-625.777778 853.333333a28.444444 28.444444 0 0 1-28.444444-28.444444v-739.555556a28.444444 28.444444 0 0 1 28.444444-28.444444h625.777778a28.444444 28.444444 0 0 1 28.444444 28.444444v739.555556a28.444444 28.444444 0 0 1-28.444444 28.444444h-625.777778z m113.777778 113.777778a28.444444 28.444444 0 0 1-28.444444-28.444444V910.222222h540.444444a85.333333 85.333333 0 0 0 85.333333-85.333333V170.666667h28.444445a28.444444 28.444444 0 0 1 28.444444 28.444444v739.555556a28.444444 28.444444 0 0 1-28.444444 28.444444h-625.777778z m398.222222-739.555555h-398.222222a28.444444 28.444444 0 0 0-28.444444 28.444444 28.444444 28.444444 0 0 0 28.444444 28.444444h398.222222a28.444444 28.444444 0 0 0 28.444445-28.444444 28.444444 28.444444 0 0 0-28.444445-28.444444z m0 170.666666h-398.222222a28.444444 28.444444 0 0 0-28.444444 28.444445 28.444444 28.444444 0 0 0 28.444444 28.444444h398.222222a28.444444 28.444444 0 0 0 28.444445-28.444444 28.444444 28.444444 0 0 0-28.444445-28.444445z m-170.666666 170.666667h-227.555556a28.444444 28.444444 0 0 0-28.444444 28.444444 28.444444 28.444444 0 0 0 28.444444 28.444445h227.555556a28.444444 28.444444 0 0 0 28.444444-28.444445 28.444444 28.444444 0 0 0-28.444444-28.444444z" fill="#666666" p-id="22718"></path></svg>