<?xml version="1.0" standalone="no"?><!DOCTYPE svg PUBLIC "-//W3C//DTD SVG 1.1//EN" "http://www.w3.org/Graphics/SVG/1.1/DTD/svg11.dtd"><svg t="1720620729675" class="icon" viewBox="0 0 1024 1024" version="1.1" xmlns="http://www.w3.org/2000/svg" p-id="76804" xmlns:xlink="http://www.w3.org/1999/xlink" width="200" height="200"><path d="M514 114.3c-219.9 0-398.8 178.9-398.8 398.9C115.2 733.1 294.1 912 514 912s398.9-178.9 398.9-398.8c-0.1-219.9-179-398.9-398.9-398.9z m13.3 652.3c-33.5 7.3-66.7-13.9-74-47.4-7.3-33.5 13.9-66.7 47.4-74 33.5-7.3 66.7 13.9 74 47.4 7.4 33.5-13.9 66.7-47.4 74z m158.1-320.8c0 60.5-49.2 109.7-109.7 109.7-7.5 0-13.6 6.1-13.6 13.6v36.5h-96.2v-36.5c0-60.5 49.2-109.7 109.7-109.7 7.5 0 13.6-6.1 13.6-13.6v-60.5c0-7.5-6.1-13.6-13.6-13.6H452.4c-7.5 0-13.6 6.1-13.6 13.6v57.6h-96.2v-57.6c0-60.5 49.2-109.7 109.7-109.7h123.3c60.5 0 109.7 49.2 109.7 109.7v60.5z" fill="#47c2fe" p-id="76805"></path></svg>