<?xml version="1.0" standalone="no"?><!DOCTYPE svg PUBLIC "-//W3C//DTD SVG 1.1//EN" "http://www.w3.org/Graphics/SVG/1.1/DTD/svg11.dtd"><svg t="1720616075383" class="icon" viewBox="0 0 1024 1024" version="1.1" xmlns="http://www.w3.org/2000/svg" p-id="28679" xmlns:xlink="http://www.w3.org/1999/xlink" width="200" height="200"><path d="M512 0C229.23 0 0 229.23 0 512c0 282.765 229.23 512 512 512 282.765 0 512-229.235 512-512C1024 229.23 794.765 0 512 0z m0 972.8C257.505 972.8 51.2 766.49 51.2 512 51.2 257.505 257.505 51.2 512 51.2c254.49 0 460.8 206.305 460.8 460.8 0 254.49-206.31 460.8-460.8 460.8z m15.128-787.303c81.387-7.522 147.15 26.324 197.273 101.54 31.268 85.261-11.004 170.524-126.813 255.725-37.582 45.126-56.369 94.014-56.369 146.666h-84.55c-3.154-92.721 48.513-180.512 154.999-263.245 25.029-30.085 35.965-62.641 32.889-97.78-18.793-50.123-54.83-73.922-108.039-71.451h-18.783c-65.763 2.526-97.099 41.363-93.944 116.579h-89.242c-3.159-92.722 35.959-150.428 117.423-172.991 12.475-7.521 37.576-12.515 75.156-15.043z m11.56 612.167c0 22.093-17.907 40.001-40.001 40.001-22.09 0-39.999-17.908-39.999-40.001 0-22.092 17.908-39.999 39.999-39.999 22.093 0 40.001 17.907 40.001 39.999z" fill="#231815" p-id="28680"></path></svg>