<?xml version="1.0" standalone="no"?><!DOCTYPE svg PUBLIC "-//W3C//DTD SVG 1.1//EN" "http://www.w3.org/Graphics/SVG/1.1/DTD/svg11.dtd"><svg t="1720919111728" class="icon" viewBox="0 0 1024 1024" version="1.1" xmlns="http://www.w3.org/2000/svg" p-id="30766" xmlns:xlink="http://www.w3.org/1999/xlink" width="200" height="200"><path d="M672.692 264.045l-269.056 44.953c-0.843 0.11-1.689 0.366-2.459 0.698h-9.725c-6.605 0-11.889 5.284-11.889 11.817v307.549c-10.494-6.055-22.716-9.54-35.705-9.54-39.449 0-71.411 31.888-71.411 71.264s31.963 71.264 71.411 71.264 71.411-31.888 71.411-71.264c0-2.898-0.183-5.724-0.478-8.478 0.293-1.1 0.478-2.238 0.478-3.451v-250.122l249.972-44.073v173.094c-10.494-6.019-22.678-9.504-35.705-9.504-39.449 0-71.411 31.888-71.411 71.264 0 39.339 31.963 71.264 71.411 71.264s71.446-31.926 71.446-71.264c0-2.862-0.183-5.724-0.513-8.513 0.33-1.1 0.513-2.238 0.513-3.451v-332.54c0-5.799-4.22-10.643-9.798-11.633-1.945-1.21-4.367-1.689-7.083-1.248l-6.313 1.063h-0.66c-1.578 0-3.083 0.293-4.441 0.843z" fill="#ffffff" p-id="30767"></path><path d="M660.95 930.518h-297.898c-148.62 0-269.532-120.914-269.532-269.569v-297.898c0-148.62 120.914-269.532 269.532-269.532h297.898c148.656 0 269.569 120.914 269.569 269.532v297.898c0 148.656-120.914 269.569-269.569 269.569zM363.050 136.085c-125.134 0-226.965 101.831-226.965 226.965v297.898c0 125.17 101.831 227.002 226.965 227.002h297.898c125.17 0 226.965-101.831 226.965-227.002v-297.898c0-125.134-101.795-226.965-226.965-226.965h-297.898z" fill="#ffffff" p-id="30768"></path></svg>