<?xml version="1.0" standalone="no"?><!DOCTYPE svg PUBLIC "-//W3C//DTD SVG 1.1//EN" "http://www.w3.org/Graphics/SVG/1.1/DTD/svg11.dtd"><svg t="1720856114090" class="icon" viewBox="0 0 1126 1024" version="1.1" xmlns="http://www.w3.org/2000/svg" p-id="6121" xmlns:xlink="http://www.w3.org/1999/xlink" width="219.921875" height="200"><path d="M1022.250433 460.982754a103.709734 103.709734 0 0 1 103.563998 98.02601l0.145736 5.683723v355.560616a103.709734 103.709734 0 0 1-98.02601 103.563998l-5.683724 0.145736H785.210023a44.449631 44.449631 0 0 1-4.262793-88.680658l4.262793-0.200387h237.04041a14.810471 14.810471 0 0 0 14.57365-12.150781l0.236822-2.659691V564.692487a14.810471 14.810471 0 0 0-12.150781-14.573649l-2.659691-0.236822H785.210023a44.449631 44.449631 0 0 1-4.262793-88.680658l4.262793-0.200387h237.04041zM548.169612 0H133.330677A133.330677 133.330677 0 0 0 0 133.330677v757.283266a133.330677 133.330677 0 0 0 133.330677 133.330677H548.151395a133.330677 133.330677 0 0 0 133.330677-133.330677V133.330677A133.330677 133.330677 0 0 0 548.151395 0zM133.348894 88.899262h414.820718a44.449631 44.449631 0 0 1 44.449631 44.449632v757.283267a44.449631 44.449631 0 0 1-44.449631 44.449631H133.330677a44.449631 44.449631 0 0 1-44.449632-44.449631V133.348894a44.449631 44.449631 0 0 1 44.449632-44.449632z" fill="#666666" p-id="6122"></path><path d="M322.004788 781.001881h55.270566a29.63916 29.63916 0 1 1 0 59.260103h-55.270566a29.63916 29.63916 0 1 1 0-59.260103z" fill="#666666" p-id="6123"></path></svg>