<?xml version="1.0" standalone="no"?><!DOCTYPE svg PUBLIC "-//W3C//DTD SVG 1.1//EN" "http://www.w3.org/Graphics/SVG/1.1/DTD/svg11.dtd"><svg t="1720620463849" class="icon" viewBox="0 0 1024 1024" version="1.1" xmlns="http://www.w3.org/2000/svg" p-id="64470" xmlns:xlink="http://www.w3.org/1999/xlink" width="200" height="200"><path d="M512 170.666667a341.333333 341.333333 0 1 1 0 682.666666c-55.722667 0-21.930667-39.552-83.925333-103.253333C368.170667 688.64 170.666667 725.12 170.666667 512a341.333333 341.333333 0 0 1 341.333333-341.333333z m74.666667 413.866666a64 64 0 1 0 0 128 64 64 0 0 0 0-128z m117.333333-136.533333a42.666667 42.666667 0 1 0 0 85.333333 42.666667 42.666667 0 0 0 0-85.333333zM640 341.333333a42.666667 42.666667 0 1 0 0 85.333334 42.666667 42.666667 0 0 0 0-85.333334z m-245.333333-12.8a42.666667 42.666667 0 1 0 0 85.333334 42.666667 42.666667 0 0 0 0-85.333334z m128-40.533333a42.666667 42.666667 0 1 0 0 85.333333 42.666667 42.666667 0 0 0 0-85.333333z" fill="#fe8182" p-id="64471"></path></svg>