<?xml version="1.0" standalone="no"?><!DOCTYPE svg PUBLIC "-//W3C//DTD SVG 1.1//EN" "http://www.w3.org/Graphics/SVG/1.1/DTD/svg11.dtd"><svg t="1720620598646" class="icon" viewBox="0 0 1024 1024" version="1.1" xmlns="http://www.w3.org/2000/svg" p-id="74626" xmlns:xlink="http://www.w3.org/1999/xlink" width="200" height="200"><path d="M212.48 413.056c-84.8-33.92-127.168-50.816-127.168-71.872 0-21.12 42.368-38.016 127.104-71.936l119.808-47.936c84.736-33.92 127.104-50.816 179.776-50.816 52.608 0 94.976 16.96 179.712 50.816l119.872 48c84.736 33.856 127.104 50.816 127.104 71.872 0 21.056-42.368 38.016-127.104 71.872l-119.872 47.936c-84.736 33.92-127.104 50.816-179.712 50.816-52.672 0-95.04-16.896-179.776-50.816L212.48 413.056z" fill="#face4b" p-id="74627"></path><path d="M85.312 341.12c0 21.12 42.368 38.08 127.104 71.936l119.808 47.936c84.736 33.92 127.104 50.816 179.776 50.816 52.608 0 94.976-16.896 179.712-50.816l119.872-47.936c84.736-33.92 127.104-50.816 127.104-71.872 0-21.12-42.368-38.016-127.104-71.936l-119.872-47.936C606.976 187.392 564.608 170.496 512 170.496c-52.672 0-95.04 16.96-179.776 50.816l-119.808 48c-84.736 33.856-127.104 50.816-127.104 71.872z" fill="#face4b" p-id="74628"></path><path d="M811.52 583.68l-119.808 48c-84.736 33.92-127.104 50.816-179.712 50.816-52.672 0-95.04-16.96-179.776-50.816L212.48 583.68c-84.736-33.856-127.104-50.816-127.104-71.872 0-18.944 34.432-34.56 103.296-62.336l134.016 53.632c78.848 31.552 128.448 51.392 189.376 51.392s110.528-19.84 189.376-51.392l134.016-53.632c68.864 27.712 103.296 43.392 103.296 62.336 0 21.12-42.368 38.016-127.104 71.936z" fill="#face4b" p-id="74629"></path><path d="M811.52 754.368l-119.808 48c-84.736 33.856-127.104 50.816-179.712 50.816-52.672 0-95.04-16.96-179.776-50.88l-119.808-47.936c-84.736-33.92-127.104-50.816-127.104-71.872 0-19.008 34.432-34.624 103.296-62.336l134.016 53.568c78.848 31.616 128.448 51.456 189.376 51.456s110.528-19.84 189.376-51.456l134.016-53.568c68.864 27.712 103.296 43.328 103.296 62.336 0 21.056-42.368 38.016-127.104 71.872z" fill="#face4b" p-id="74630"></path></svg>